<?xml version="1.0" standalone="no"?>
<!DOCTYPE svg PUBLIC "-//W3C//DTD SVG 20010904//EN"
 "http://www.w3.org/TR/2001/REC-SVG-20010904/DTD/svg10.dtd">
<svg version="1.0" xmlns="http://www.w3.org/2000/svg"
 width="512.000000pt" height="512.000000pt" viewBox="0 0 512.000000 512.000000"
 preserveAspectRatio="xMidYMid meet">

<g transform="translate(0.000000,512.000000) scale(0.100000,-0.100000)"
fill="#000000" stroke="none">
<path d="M1135 4601 c-75 -19 -140 -75 -174 -151 -20 -45 -21 -56 -21 -1890 0
-1834 1 -1845 21 -1890 25 -55 71 -105 124 -133 l40 -22 1409 -3 c1572 -3
1478 -7 1558 66 23 20 52 60 64 87 l24 50 0 1845 c0 1834 -1 1845 -21 1890
-25 55 -71 105 -124 133 l-40 22 -1415 2 c-778 0 -1428 -2 -1445 -6z m2851
-194 l24 -28 0 -1819 0 -1819 -24 -28 -24 -28 -1402 0 -1402 0 -24 28 -24 28
0 1817 c0 1653 1 1820 16 1840 9 13 26 27 38 32 11 5 640 8 1409 7 l1389 -2
24 -28z"/>
<path d="M2487 4260 c-222 -39 -383 -262 -348 -481 38 -233 257 -396 482 -360
282 46 442 341 324 598 -79 174 -271 276 -458 243z m193 -198 c179 -89 178
-354 -3 -446 -153 -78 -330 6 -366 174 -28 131 53 260 187 296 60 17 113 10
182 -24z"/>
<path d="M2139 3317 c-99 -28 -183 -98 -231 -196 -21 -42 -23 -62 -26 -231 -3
-177 -3 -187 18 -213 l21 -27 639 0 639 0 21 27 c21 26 21 36 18 213 l-3 185
-34 63 c-41 75 -94 125 -170 161 l-56 26 -395 2 c-292 2 -407 -1 -441 -10z
m814 -171 c88 -32 117 -88 117 -226 l0 -100 -510 0 -510 0 0 100 c0 81 4 109
20 140 21 41 64 77 108 90 15 5 187 8 382 9 275 0 364 -3 393 -13z"/>
<path d="M1479 2361 c-31 -31 -36 -59 -17 -94 25 -48 -19 -46 1100 -47 l1056
0 26 31 c34 40 33 74 -3 110 l-29 29 -1052 0 -1052 0 -29 -29z"/>
<path d="M1480 1940 c-43 -43 -34 -110 20 -137 36 -18 2084 -18 2120 0 54 27
63 94 20 137 -20 20 -38 20 -1080 20 -1042 0 -1060 0 -1080 -20z"/>
<path d="M1513 1533 c-13 -2 -32 -16 -44 -31 -26 -33 -20 -88 12 -114 20 -17
86 -18 1079 -18 993 0 1059 1 1079 18 12 9 24 33 27 53 5 29 1 41 -19 65 l-25
29 -1044 1 c-573 1 -1053 -1 -1065 -3z"/>
<path d="M1479 1081 c-31 -31 -36 -59 -17 -94 25 -48 -19 -46 1100 -47 l1056
0 26 31 c34 40 33 74 -3 110 l-29 29 -1052 0 -1052 0 -29 -29z"/>
</g>
</svg>
